# xmcd CD database file
#
# Track frame offsets:
#	150
#	15156
#	33145
#	46459
#	60112
#	72699
#	87508
#	101386
#	128550
#	142919
#	160068
#	175638
#	187400
#
# Disc length: 2685 seconds
#
# Revision: 0
# Processed by: cddbd v1.5.1PL2 Copyright (c) Steve Scherf et al.
# Submitted via: CDex 1.50
#
DISCID=9f0a7b0d
DTITLE=Alan Neal - Just For The Love Of It
DYEAR=2005
DGENRE=Country
TTITLE0=Bottle That Pours The Wine
TTITLE1=You Say You're A Real Cowboy
TTITLE2=By A Fire Of Gidgee Coal
TTITLE3=Choices
TTITLE4=Holding Things Together
TTITLE5=Too Old To Die Young
TTITLE6=Life Turned Her That Way
TTITLE7=No Mans Land
TTITLE8=Never Take Her Love From Me
TTITLE9=Hire A Wino
TTITLE10=One Day At A Time
TTITLE11=Around The Boree Log
TTITLE12=Cowboy Rides Away
EXTD=YEAR: 2005
EXTT0=
EXTT1=
EXTT2=
EXTT3=
EXTT4=
EXTT5=
EXTT6=
EXTT7=
EXTT8=
EXTT9=
EXTT10=
EXTT11=
EXTT12=
PLAYORDER=
